<!DOCTYPE svg PUBLIC "-//W3C//DTD SVG 1.1//EN" "http://www.w3.org/Graphics/SVG/1.1/DTD/svg11.dtd">
<!-- Uploaded to: SVG Find, www.svgfind.com, Transformed by: SVG Find Mixer Tools -->
<svg fill="#D6BD98" width="800px" height="800px" version="1.1" viewBox="144 144 512 512" xmlns="http://www.w3.org/2000/svg" stroke="#D6BD98">
<g id="SVGRepo_bgCarrier" stroke-width="0"/>
<g id="SVGRepo_tracerCarrier" stroke-linecap="round" stroke-linejoin="round"/>
<g id="SVGRepo_iconCarrier"> <g> <path d="m416.58 383.91 0.046875 0.16016v0.023437l0.046875 0.23438c0.046875 0.070313 0.070313 0.070313 0.070313 0.09375 0 0.023438 0 0.089844 0.023437 0.089844v0.007813c0.34375 0.13672 0.70703 0.22266 1.0742 0.25781 0.42969 0.042969 0.85938 0.054688 1.2891 0.023438 0.51563-0.027344 1.0312-0.082032 1.5469-0.16406 1.0625-0.16016 2.1133-0.38672 3.1484-0.67578 4.5508-1.4883 8.8438-3.6641 12.73-6.4609 4.3945-3.1055 9.1289-5.6953 14.113-7.7227l2.0352-0.70312 1.8008-0.44531c1.3594-0.35156 2.5273-0.48828 3.7891-0.74609 2.4805-0.375 4.8633-0.65234 7.207-0.82031 9.2891-0.67578 17.363-0.60547 23.891-1.7773 13.246-1.9414 19.004-9.0078 19.82-8.0977 0.16406 0.16406-0.046875 0.70312-0.63281 1.5742-0.28125 0.42578-0.65234 0.96094-1.0977 1.5469s-1.1797 1.1797-1.8984 1.918h0.003906c-2.0898 1.8945-4.4336 3.4844-6.9688 4.7227l0.070312 0.070313c9.125 13.176 21.762 29.016 38.633 31.707 1.8008 0.28516 22.699 2.6211 24.852 1.2617-3.9766-12.027-4.2109-31.051-14.438-39.312v0.003906c-6.4492-4.2227-13.219-7.9297-20.246-11.094-8.0625-4.5078-16.578-8.1484-25.41-10.859-3.6758-1.0508-7.3008-2.1992-10.906-3.418-0.41797-0.035156-0.82422-0.16797-1.1797-0.39062-10.484-3.543-20.734-7.4766-31.312-10.949-13.504-4.4492-41.094 0.49219-42.051 17.832 1.7305-0.44531 3.418-0.86719 4.918-1.2617 3.8359-1.0312 6.9688-1.7773 9.4062-2.7148v-0.007813c1.9844-0.69922 3.8711-1.6484 5.6133-2.8281 0.65234-0.46875 1.2148-0.89063 1.707-1.2383 0.49219-0.35156 0.82031-0.72266 1.1211-0.96094 0.65234-0.49219 1.0547-0.67578 1.2383-0.5625 0.18359 0.11328 0.14062 0.53906-0.20703 1.3125l0.003906-0.003907c-0.22266 0.50391-0.47266 1-0.75391 1.4766-0.375 0.53906-0.89063 1.1445-1.4961 1.8516l0.003906-0.003907c-1.6797 1.7148-3.6328 3.1328-5.7852 4.1914-3.082 1.4883-6.2734 2.7461-9.543 3.7656-3.7695 1.3125-8.1445 2.5273-12.848 4.3047-2.4609 0.91406-4.8477 2.0195-7.1406 3.3008-2.3789 1.2344-4.4297 3.0156-5.9883 5.1953-0.66406 0.78906-0.99219 1.8047-0.91406 2.832 0.11328 0.90625 0.61719 1.7188 1.3789 2.2188 2.7695 0.99219 5.832 0.74609 8.4062-0.67578 1.7969-0.65625 3.625-1.4766 5.7773-2.293 2.0117-0.69922 4.0742-1.4492 6.1797-2.1992 5.1914-1.918 10.273-2.8281 15.469-4.5859 0.48828-0.16016 1.0742-0.78906 1.6602-0.51562 0.91406 0.44531 0.67578 2.293 0.30469 3.0195-0.89062 1.6172-2.9727 1.9922-4.2578 3.1484l-0.003907-0.003906c-1.1562 1.4297-2.1211 3.0039-2.875 4.6797-1.9453 2.8789-3.2773 4.8438-0.39453 7.3477 1.6641-0.89062 3.2539-1.7539 4.7227-2.5977 11.98-6.5312 18.605-11.809 19.352-11.02 0.5625 0.53516-5.1953 7.3008-16.871 15.066-2.9062 1.9922-6.1094 4.0039-9.5742 6.1094l-1.3125 0.82031c-0.58594 0.35156-1.0312 0.58594-1.5195 0.84375-0.9375 0.49219-1.8281 0.96094-2.668 1.4766l0.007812-0.003907c-0.78125 0.45313-1.5195 0.98047-2.1992 1.5742-0.43359 0.29688-0.76172 0.72266-0.9375 1.2188v-0.066406c0-0.035156-0.011719-0.070313-0.03125-0.10156zm196.85-12.754c10.879 12.094 26.211 26.766 22.02 44.391-3.2031 13.594-12.168 32.273-28.246 33.395-15 1.0547-27.684-5.8242-40.039-13.246l0.070312 0.14062c1.4258 3.7656 3.2969 9.2891 6.0352 15.797v0.003906c1.4648 3.5117 3.1445 6.9297 5.0352 10.23 1.0156 1.8398 2.1523 3.6133 3.3906 5.3125 0.62891 0.86719 1.3828 1.9688 1.9688 2.668 0.72656 0.96094 1.4766 1.9453 2.1758 2.9961 1.6016 2.25 2.8555 4.7266 3.7227 7.3477 0.98047 3.0586 0.98828 6.3438 0.023438 9.4062-0.48438 1.5195-1.168 2.9688-2.0352 4.3047-0.43359 0.68359-0.90234 1.3398-1.4062 1.9688-0.46484 0.63281-0.89063 1.0312-1.332 1.5742l-0.33203 0.375-0.44531 0.46875-0.89062 0.86719c-0.60547 0.55859-1.2383 1.0039-1.8711 1.5195-1.2383 0.86719-2.4805 1.6602-3.6289 2.3633-0.55859 0.35156-1.1211 0.69922-1.6133 1.0508l-0.78906 0.51562-0.5625 0.44531 0.007812-0.003907c-0.49219 0.34766-0.94531 0.74219-1.3594 1.1797-0.25391 0.21094-0.65234 0.78906-1.0039 1.1797v0.003906c-1.0547 1.4648-2.0234 2.9883-2.9023 4.5625 0.11719 0.25391 0.21094 0.53906 0.33203 0.82031h-0.003906c0.28125 0.37891 0.46484 0.82031 0.53516 1.2852 4.25 12.215 6.457 25.047 6.5312 37.98 0.28125 6.3164 0.39453 12.664 0.78906 18.98h-0.003906c0.10547 4.7422 0.5 9.4727 1.1836 14.168-4.5156 0.91406-9.1094 1.3633-13.715 1.3359-5.4102 0.66016-10.859 0.97266-16.309 0.9375-10.883 0-21.742-0.9375-32.621-1.1797l-0.003906-0.003907c-21.238-0.99609-42.52-0.66016-63.719 1.0078-0.51953 0.4375-1.1953 0.64844-1.875 0.58594-61.43-3.4648-122.8-1.1797-184.29-1.1797-21.648 0-43.223 0.14062-64.867 0.9375-9.0078 0.32812-27.781 3.0898-35.688-4.0938h0.003907c-0.94531-0.39062-1.6055-1.2578-1.7305-2.2695-0.45312-1.6953 0.50391-3.4492 2.1758-3.9805 12.594-16.613 32.832-21.484 52.465-26.117 15.844-3.7422 20.547-13.922 28.48-26.766 6.5039-10.297 14.5-19.57 23.73-27.52 12.285-11.125 25.766-20.848 40.199-28.992-3.8672-1.1719-7.0742-3.9023-8.8477-7.5391-3.4648-6.5977-7.582-15-1.2383-21.105 0.16406-0.14062 0.30859-0.26172 0.46875-0.39453 0.96094-1.5742 1.8516-3.1797 2.7148-4.8398-5.7344-9.5-3.9375-20.41-1.707-30.727-0.054687-0.13672-0.11719-0.26562-0.19141-0.39453-3.6719-10.387 0.84375-19.609 6.1328-28.453 0.003907-0.45703 0.11719-0.90625 0.32812-1.3086 2.9961-6.1562 2.9258-14.602 8.1445-19.633-3.0195-5.457-3.4648-12.496 1.8984-16.777l-0.003906-0.003907c2.7266-2.207 6.3203-3.0273 9.7344-2.2227-0.03125-2.6602 0.95703-5.2266 2.7539-7.1836 1.1719-1.2656 2.6797-2.168 4.3516-2.5977 0.14063-0.20703 0.30078-0.40234 0.46875-0.58594 2.8516-2.7422 6.2617-4.8398 9.9922-6.1523 0.054688-4.6797 3.6484-8.5547 8.3086-8.9609-1.2578-1.9414-2.3984-3.9609-3.4141-6.0391-0.64062-1.1484-0.4375-2.582 0.49219-3.5117 0.92969-0.92969 2.3594-1.1289 3.5078-0.49219 3.9922 2.2812 7.1953 5.7266 9.1758 9.875 0.9375 0.11719 1.8242 0.23047 2.6641 0.39453 4.75 0.28516 9.2695 2.1367 12.852 5.2656 3.2266 3.4883 2.082 8.375 0.39453 12.332 0.023437 0.11719 0.066406 0.20703 0.089843 0.35156 0.41406 2.0117 0.44922 4.082 0.09375 6.1094 4.2305 0.56641 7.5859 3.8359 8.2656 8.0469 0.11719 1.5742-0.070313 1.543 0.65234 1.8516h0.003907c0.039062-0.066406 0.085937-0.13281 0.14062-0.19141 7.7461-9.3828 15.797-19.379 27.918-23.004v0.003906c0.48047-0.13281 0.98438-0.14844 1.4727-0.046875-0.82813-12.91-0.10547-25.875 2.1523-38.613 0.49219-2.4336 3.8125-1.6133 4.0273 0.53906 0.69922 7.1836 3.0898 14.168 3.8867 21.41 0.32812 3.1484 0.78906 6.2969 1.1797 9.4766l-0.003906 0.003906c6.0898-2.625 12.418-4.6562 18.895-6.0625-6.7617-15.961-7.9297-35.477 1.0781-50.43-0.65625-5.5469-1.3828-10.672 1.8242-15.656 4.1914-7.5703 8.8438-14.875 13.926-21.879 3.9688-4.5273 9.082-7.9062 14.805-9.7852 5.7188-1.8828 11.84-2.1953 17.723-0.91016 11.723 3.3711 27.707 11.887 33.91 22.793 5.0078 8.7773-0.30859 20.824-1.7539 30.188l-0.003906 0.003906c3.0234 1.3906 5.0156 4.3516 5.1719 7.6758 0.38672 5.2422-1.1016 10.453-4.1953 14.707-3.0938 4.25-7.5938 7.2695-12.703 8.5117-0.39844 0.13672-0.82031 0.19141-1.2383 0.16797-0.49219 1.0078-1.0312 1.9688-1.5742 2.9727 0.19141 0.10156 0.37109 0.22656 0.53516 0.37109 0.74219-0.019532 1.4609 0.26562 1.9922 0.78906 10.336 8.293 22.617 13.812 35.684 16.031 8.2383 1.2852 17.414-1.918 24.574 3.3945 4.5195 3.3438 3.2539 8.3789 9.1289 12.355l-0.003907-0.003906c3.0742 1.6797 5.7578 3.9922 7.8711 6.7852 5.7109 9.8086 6.6484 21.531 10.016 32.223 1.6836 0.70313 3.3438 1.4297 5.0312 2.1758v0.003906c1.168 0.26172 2.1836 0.96484 2.8359 1.9688zm16.379 42.848c2.4844-15.492-11.254-28.363-20.992-39.223v0.003906c-5.8555-2.6875-11.883-4.9844-18.039-6.8789-0.23438 0.070313-0.51562 0.16406-0.78906 0.23438 1.3828 0.60547 2.7852 1.2617 4.2617 2.082h0.003906c2.2617 1.1641 4.2695 2.7695 5.9023 4.7227 0.94922 1.168 1.6094 2.5469 1.918 4.0234 0.29297 1.5273 0.24609 3.1055-0.13672 4.6133-0.84766 2.6016-2.1992 5.0078-3.9805 7.0859-1.4531 1.8516-3.043 3.6484-4.5859 5.2891-0.78906 0.84375-1.5742 1.6602-2.3633 2.4102v-0.003906c3.7773-1.5898 7.6562-2.9258 11.609-4 3.0547-1.1602 6.3516-1.5469 9.5938-1.1211 0.11328 0.60938-3.3477 1.6602-8.7305 3.7656-2.4336 0.96094-5.2422 2.1758-8.332 3.582-0.53516 0.32812-1.0977 0.67578-1.75 1.0508-1.6406 0.96094-3.6289 2.1055-5.9492 3.4414-1.1445 0.65625-2.3633 1.3828-3.5781 2.1523-0.58594 0.39453-1.2148 0.82031-1.7539 1.2383-0.25781 0.20313-0.49609 0.42188-0.72266 0.65625 0.058593 0.058594 0.11328 0.12109 0.16016 0.1875 0.30469 0.28516 0.65625 0.5625 1.0547 0.86719 0.82031 0.58594 1.7539 1.1484 2.7344 1.7305 0.98047 0.58203 2.0156 1.1797 3.1484 1.9688l0.003906-0.003907c0.70312 0.48047 1.3125 1.082 1.8008 1.7812 0.35938 0.52734 0.6875 1.0742 0.98047 1.6367 0.84375 1.4609 1.2266 3.1406 1.1016 4.8203-0.035156 0.50391-0.16016 0.99609-0.375 1.4492-0.18359 0.47266-0.44922 0.91016-0.78516 1.2891-0.58203 0.70312-1.2969 1.2852-2.1055 1.707-1.8242 0.875-3.793 1.4062-5.8086 1.5742 0.60938 1.2148 1.2148 2.457 1.7539 3.7656h0.003906c0.38672 0.92578 0.69922 1.8789 0.9375 2.8555 0.12891 0.58984 0.18359 1.1953 0.16016 1.8008-0.03125 0.875-0.35156 1.7148-0.91016 2.3867-0.023437 0.023437-0.046875 0.023437-0.046875 0.046875 3.3242 1.4531 6.7891 2.5508 10.344 3.2773 18.652 3.75 31.43-10.395 34.258-28.262zm-31.727-31.43-0.003907 0.003906c0.55078-1.8242 0.16406-3.8047-1.0312-5.2891-1.3008-1.5898-2.8789-2.9258-4.6562-3.957-3.543-2.1719-7.1836-3.7891-10.137-5.3789-2.3047-1.1484-4.4766-2.5469-6.4766-4.168-0.18359-0.070312-0.36328-0.14844-0.53906-0.23828 0.48828 0.85156 0.88281 1.7539 1.1797 2.6914 2.1406 5.3555 1.9883 11.352-0.42188 16.59-0.42969 0.91016-0.98828 1.7539-1.6602 2.5039-0.28125 0.33203-0.53906 0.63281-0.78906 0.9375-0.28516 0.21094-0.53906 0.39453-0.78906 0.5625-0.9375 0.67578-1.5469 0.96094-1.7305 0.78906-0.53906-0.39453 1.3555-2.5039 2.3633-5.8711v-0.003906c1.2852-4.6758 1.0391-9.6406-0.69922-14.168-1.7852-4.5352-5.0195-8.3555-9.1992-10.859-0.49219-0.39453-0.96094-0.69922-1.3828-1.0273-3.7461-2.5195-8.5273-2.9375-12.656-1.1016 12.473 10.09 13.148 27.551 17.711 41.957 0.45312 0.41797 0.74219 0.98047 0.82031 1.5938 0.058594 0.37891 0.097657 0.76172 0.11328 1.1445 0.09375 0.28125 0.1875 0.53906 0.28516 0.78906 0.074219 0.20312 0.12891 0.41797 0.16016 0.63281 1.1797-0.98438 2.0859-1.9688 3.1133-2.9531 1.1797-1.332 2.3906-2.5742 3.418-3.9062 2.1523-2.5508 3.957-5.0352 5.5938-7.0469 3.1836-4.0703 5.5117-6.3633 5.9453-6.0391 0.43359 0.32812-1.0508 3.1484-3.6484 7.6289-1.3359 2.2227-2.9258 4.8672-5.0117 7.6992-0.98047 1.4297-2.2188 2.832-3.4609 4.3047l-0.003906 0.003906c-1.3516 1.5-2.832 2.8789-4.4219 4.1211l-1.1797 0.91406-0.28516 0.20703-0.070313 0.070313-0.11328 0.070312-0.046875 0.023438-0.16406 0.11328-0.67578 0.39453-0.003906 0.003906c-0.86719 0.55078-1.7734 1.0391-2.7148 1.4531-0.91406 0.375-1.8008 0.78906-2.6914 1.0977-0.89062 0.26172-1.7539 0.51562-2.6172 0.78906l-0.003906-0.003906c-2.9805 0.78125-6.0156 1.3438-9.0781 1.6875-5.1484 0.58203-8.3555 0.78906-8.4727 0.25391-0.11719-0.53125 2.9062-1.707 7.9336-2.9961 2.082-0.53906 4.4727-1.1797 7.0234-1.9414l-0.003906 0.003906c-5.8516-0.050781-11.684-0.625-17.434-1.7109-1.8398-0.28516-3.6602-0.67969-5.4531-1.1797-0.51562 2.832-1.4766 8.0039-0.1875 8.6602 2.4531 1.125 4.9727 2.1172 7.5352 2.9688 6.4766 2.5117 12.711 5.6094 18.625 9.2461 5.4805 3.3711 11.047 7.0859 16.828 10.32l0.44531 0.16016c0.72266 0.28516 1.4531 0.53906 2.1758 0.78906 0.6875 0.20703 1.3906 0.35938 2.1055 0.44531 0.22266 0.046875 0.45312 0.046875 0.67578 0 0.007813-0.25391-0.023437-0.50391-0.089844-0.74609-0.19922-0.74219-0.45312-1.4688-0.75-2.1797-0.65234-1.543-1.4727-3.1484-2.2891-4.75l-0.67969-1.3594-1.3789-2.7539 3.0859-0.09375h-0.003906c2.4258 0.046875 4.832-0.39062 7.0859-1.2852 0.89062-0.46875 1.2383-0.9375 1.3359-1.5195 0.019532-0.87109-0.18359-1.7344-0.58984-2.5039-0.26562-0.53906-0.5625-1.0664-0.88672-1.5742-0.22656-0.30078-0.49219-0.5625-0.78906-0.78906-0.84375-0.63281-1.875-1.2617-2.8281-1.8984-0.95703-0.63281-1.9688-1.2852-2.9297-2.0352v0.003906c-0.50781-0.39453-0.97656-0.83203-1.4023-1.3125-0.66797-0.66797-1.0703-1.5586-1.125-2.5039v-0.11719c0.039063-0.17578 0.09375-0.34766 0.16406-0.51172-6.3398 2.8047-12.098 5.1172-16.336 7.0195l-6.3633 2.7539c-1.5195 0.60547-2.4336 0.84375-2.5742 0.60547-0.14062-0.23438 0.51562-0.91406 1.8008-1.9414h0.003906c1.8398-1.4375 3.7891-2.7383 5.8242-3.8828 5.1172-3.0898 12.496-6.4336 20.57-10.234 0.30469-0.14062 0.63281-0.28516 0.9375-0.44531 0.23047-0.1875 0.44531-0.39453 0.69922-0.58594 2.7969-2.5703 5.4375-5.3086 7.9141-8.1914 1.3828-1.6367 2.7812-3.3203 4.2344-5.2383 1.418-1.6875 2.5078-3.625 3.2188-5.7109zm-4.4023-20.547c1.6367 0.72266 3.3203 1.4492 4.9844 2.1289-3.3203-12.566-4.4922-24.688-16.406-32.812l-0.003907 0.007813c-2.5156-1.4648-4.457-3.7422-5.5078-6.457-2.5508-8.3555-8.7031-6.5781-15.023-6.3438-9.8398 0.375-17.879-3.7891-26.957-6.8789h-0.003906c-3.2031-1.0625-6.3398-2.3281-9.3828-3.793 5.7969 8.0742 7.6484 18.332 5.0312 27.918-0.15234 0.52344-0.53516 0.94922-1.043 1.1562-0.50391 0.20312-1.0742 0.16797-1.5508-0.10156-4.9102-3.5195-10.316-6.2969-16.039-8.2383-1.9531 1.8594-4.0273 3.5859-6.2031 5.1719 7.1172 2.2148 14.023 5.0586 20.641 8.4961 0.60938-0.40234 1.1797-0.85547 1.707-1.3594 3.9805-3.7188 7.2305-8.0742 9.875-10.879 2.5977-2.8828 4.6797-4.375 5.0547-3.957 0.375 0.42188-0.84375 2.3633-2.8281 5.6406-2.6328 4.4297-5.8164 8.5-9.4805 12.121-0.19141 0.18359-0.39062 0.35547-0.60547 0.51563 3.25 1.9688 6.4102 4.0977 9.7109 5.8711 0.91797 0.44922 1.8633 0.84375 2.8281 1.1836 0.62891-2.8828 1.6719-5.6562 3.0898-8.2383 1.2695-2.4062 2.793-4.6641 4.543-6.7383 2.4297-3.0312 5.3867-5.6016 8.7266-7.5859 1.7891-1.0859 3.7656-1.8164 5.8281-2.1523 1.3086-0.089843 1.8477 0.023438 1.8945 0.26172 0.14062 0.62891-2.0586 0.84375-6.3867 4v-0.003906c-2.8477 2.1328-5.3828 4.6484-7.5352 7.4766-1.5273 1.9766-2.875 4.082-4.0273 6.3008-0.76953 1.4805-1.418 3.0195-1.9375 4.6094 0.51172-0.30469 1.0508-0.60547 1.5742-0.86719 2.8555-2.875 6.1836-5.2422 9.8398-6.9961 3.6133-1.7227 7.457-2.918 11.414-3.5391 2.0664-0.38281 4.168-0.55469 6.2734-0.51562 1.2852 0.023437 1.8711 0.16406 1.8945 0.42188 0.023437 0.25391-0.49219 0.53906-1.7305 0.9375-1.2383 0.39844-3.1484 0.78906-5.9023 1.5742l-0.003906-0.003907c-3.6172 0.95312-7.125 2.2891-10.461 3.9805-1.2266 0.63281-2.4102 1.3438-3.543 2.1289 5.5469 0.32422 10.695 2.9883 14.168 7.3242 6.5273 6.8398 15.578 4.6797 23.484 8.2383zm-10.367 125.56-0.003906 0.003906c0.93359-3.9883-0.046875-8.1836-2.6445-11.352-0.58203-0.9375-1.2148-1.8477-1.8711-2.7539-0.82422-1.1484-1.3125-1.9922-1.9688-2.9727h0.003906c-1.2617-1.8945-2.3984-3.875-3.3945-5.9219-1.8164-3.6328-3.3555-7.3945-4.6094-11.254-1.7812-5.4922-3.1562-11.109-4.1211-16.805-0.13672-0.96094-0.25391-1.8008-0.35156-2.5508-3.5781-2.1523-7.1133-4.3281-10.719-6.3164-7.3008-4.0742-19.023-5.9023-25.062-11.98h0.007812c-0.63672-0.61328-1.168-1.3242-1.5781-2.1055-0.49219 1.0742-1.0547 2.2891-1.5742 3.7188-0.69922 1.8008-1.5195 3.8594-2.4102 6.1562-0.89062 2.293-1.7539 4.8398-2.7539 7.582-1 2.7383-1.9688 5.6875-3.0664 8.7734-1.1445 3.0898-2.2188 6.3438-3.6016 9.6914-0.67969 1.6602-1.3594 3.3711-2.0586 5.1172-0.78906 1.6836-1.5938 3.3945-2.4141 5.1484-3.418 6.9492-7.3711 12.988-10.789 18.578-3.1094 5.6406-6.0156 10.719-8.0273 15.211-2.293 4.3516-3.7188 8.0742-4.8672 10.602-1.1484 2.5273-1.8945 3.8867-2.1523 3.7891-0.26172-0.09375 0-1.5742 0.70313-4.3047l0.003906-0.003906c0.96094-3.832 2.2109-7.5859 3.7422-11.227 2.1875-5.4531 4.6836-10.773 7.4805-15.938 3.25-5.7109 7.1133-11.844 10.363-18.441 6.3906-13.434 10.555-26.582 14.84-35.641 1.1211-2.2461 2.1289-4.3047 3.0195-6.0859 0.78125-1.4922 1.6406-2.9453 2.5742-4.3516 0.11328-0.16016 0.18359-0.28125 0.28125-0.42188h-0.003906c0.19922-3.293 0.92969-6.5312 2.1523-9.5938-9.457-4.1875-17.812-10.512-24.414-18.473 0.007812 0.089844-0.015625 0.17969-0.070312 0.25391-0.51563 0.35156-2.1289-1.7539-4.0469-5.2188-2.1992-2.7812-4.2812-5.6367-6.2734-8.5156-0.085937-0.12891-0.16406-0.25781-0.23438-0.39453-0.29297 0.41406-0.55469 0.85547-0.78516 1.3086-1.1992 2.75-2.1484 5.5977-2.8359 8.5195-0.72266 2.7539-1.3125 5.2656-1.7969 7.3945-1.0312 4.2578-1.6641 6.8555-2.1758 6.8555-0.58594 0-0.91406-2.8555-0.58594-7.2773 0.17969-2.6055 0.51563-5.1992 1.0078-7.7695 0.50391-2.8164 1.2852-5.5742 2.3359-8.2383-7.4297 1.332-14.922 2.2812-22.445 2.8477-4.4961 0.39453-8.9258 1.3203-13.203 2.7539-4.4688 1.957-8.7266 4.3672-12.707 7.1875-4.4727 3.1641-9.4297 5.5859-14.672 7.1836-2.75 0.77734-5.6211 1.0547-8.4688 0.82031-0.42969-0.027344-0.85547-0.10547-1.2656-0.23828-0.45703-0.12109-0.90234-0.27344-1.332-0.46484-0.39453-0.1875-0.77734-0.39844-1.1484-0.63281 0.86719 8.6602 2.3438 17.246 4.4258 25.695 0.11328 0.60938 0.20703 1.2148 0.30469 1.8281 1.0039 3.6719 1.9688 7.8359 2.9258 12.309 0.30469 1.4062 0.60938 2.8555 0.91406 4.3047 0.30469 1.4531 0.65234 2.9258 0.91406 4.6797 0.11328 0.60938 0.18359 1.1797 0.28125 1.8008h-0.007812c0.003906 0.042968 0.019531 0.085937 0.046874 0.11719 0.17578 0.46484 0.21484 0.96484 0.12109 1.4492 0.20703 2.2695 0.25391 4.543 0.30469 6.832 0.023437 3.3438-0.070313 6.6016 0.09375 9.5469 0 1.5742 0.23047 2.7539 0.32812 4.0938 0.09375 0.70312 0.28125 1.4531 0.42188 2.1758l0.23047 1.0781 0.046876 0.25391 0.046874 0.09375 0.14063 0.46875v0.003907c1.5664 4.6289 3.6055 9.082 6.0859 13.293 1.5195 2.6953 2.8906 5.4648 4.1172 8.3047 0.42188 0.44531 0.84375 0.91406 1.2617 1.3594-0.78906-2.3398-1.5195-4.7734-2.1523-7.3711-0.89063-3.3945-1.3828-6.9688-2.082-10.695-0.69922-3.7227-1.4297-7.5586-1.9688-11.512-0.78906-7.9297-1.707-15.488-2.1289-22.344s-0.78906-13.059-1.0781-18.254c-0.62891-10.391-0.72266-16.852-0.18359-16.895l-0.003906-0.003907c1.6211 5.4141 2.6094 11 2.9492 16.641 0.67578 5.1484 1.2617 11.324 1.9414 18.18 0.67578 6.8555 1.6367 14.301 2.4102 22.164 0.53906 3.9062 1.2852 7.6758 1.8516 11.348 0.65625 3.6523 1.0781 7.2539 1.8281 10.527h-0.003906c1.0469 4.8242 2.3984 9.5742 4.043 14.23 0.86719 1.0078 1.707 2.0352 2.5078 3.1133 1.6367 2.2227 3.1797 4.5156 4.75 6.7852 1.6602 1.5469 3.6719 3.3438 6.0352 5.2656-0.046875-0.082032-0.082031-0.17188-0.11328-0.26172-0.33203-0.62891-0.65625-1.2852-0.9375-1.9414l-0.63281-2.1055v0.003906c-0.43359-1.457-0.71875-2.957-0.84375-4.4727-0.23047-1.5742-0.375-3.0195-0.53516-4.5859-0.65625-6.2461-1.4297-13.078-1.6836-20.402-0.070312-1.8281-0.16406-3.6289-0.26172-5.4062-0.023437-0.91406-0.09375-1.707-0.09375-2.7109 0.046876-0.86719 0.070313-1.707 0.11719-2.5742 0.1875-3.418 0.23438-6.6719 0.5625-9.8398 0.32812-3.168 0.69922-6.1562 1.0039-8.9414 0.30469-2.7852 0.75-5.3555 1.125-7.6992 1.4258-9.3359 2.4805-15.09 3.043-15.09l0.003906-0.007813c0.57812 5.125 0.48438 10.301-0.28516 15.398-0.18359 2.3633-0.39453 4.9609-0.62891 7.7227s-0.39453 5.6836-0.63281 8.7734c-0.24219 3.0898-0.18359 6.4062-0.33203 9.7852-0.023437 0.84375-0.046875 1.707-0.070313 2.5742 0 0.72656 0.070313 1.6836 0.11719 2.5273 0.09375 1.7305 0.1875 3.5117 0.28125 5.2891 0.26172 7.1367 0.91406 14.016 1.3594 20.266 0.09375 1.543 0.21094 3.1484 0.35156 4.5156h-0.003907c0.066407 1.3594 0.26562 2.707 0.58594 4.0273 0.14062 0.62891 0.28125 1.2617 0.42188 1.8711 0.23047 0.5625 0.46875 1.125 0.69922 1.6641 0.42969 1.0547 0.98828 2.0547 1.6602 2.9727 0.91797 1.2148 1.9531 2.3359 3.0898 3.3438 2.9141 1.5195 5.9805 2.7188 9.1523 3.5781 1.6445 0.5 3.3164 0.89453 5.0078 1.1797 1.7539 0.25391 3.4883 0.67578 5.3359 0.89063 3.8359 0.49219 7.7227 0.98047 11.699 1.4023 7.3125 0.94141 14.715 0.99609 22.039 0.16406 0.53906-0.11719 1.0742-0.21094 1.6133-0.30469h0.003906c-1.207-0.070312-2.4102-0.21094-3.6016-0.41797-1.1445-0.19141-2.2773-0.44141-3.3945-0.75391-4.0039-1.0508-5.9961-2.082-5.9219-2.4805 0.070313-0.51562 2.3906-0.32812 6.3438-0.09375 5.4766 0.42578 10.988-0.0625 16.305-1.4492 0.84375-0.1875 1.707-0.42188 2.6211-0.67969l1.3594-0.35156 0.67969-0.18359 0.35156-0.09375 0.18359-0.046875 0.35547-0.070313c0.46484-0.09375 0.95703-0.20703 1.4492-0.30469l1.7773-0.21094c1.1445-0.089844 2.2695-0.13672 3.3945-0.13672 4.4727 0.023437 8.9844 0.67578 13.246 0.375v-0.003907c2.0625-0.10937 4.0898-0.58594 5.9883-1.4062 0.46875-0.18359 0.89062-0.49219 1.3359-0.69922l0.14062-0.070313 0.30469-0.26172 0.74609-0.58203c0.49219-0.39453 0.53906-0.63281 0.86719-0.91406 0.28516-0.35156 0.60938-0.84375 0.9375-1.2383 1.2383-1.8516 2.4102-4.3516 4.2812-6.8555 0.50391-0.65625 1.043-1.2812 1.6133-1.875 0.52344-0.53906 1.0781-1.0469 1.6602-1.5195l1.0312-0.82031 0.91406-0.60938c-0.42188-1.8242-1.3477-3.4922-2.668-4.8203-0.93359-1.0742-1.8086-2.1992-2.6211-3.3672-1-1.3711-1.7305-2.9219-2.1523-4.5625-0.15234-0.71484-0.078125-1.4609 0.21094-2.1289 0.14453-0.36719 0.35938-0.69922 0.62891-0.98438 0.20313-0.23828 0.42969-0.44922 0.68359-0.63281 0.84375-0.60938 1.4023-0.89062 1.8711-1.2617h-0.003906c0.92578-0.67969 1.6367-1.6172 2.0391-2.6914 0.48438-0.98047 0.58203-2.1016 0.28125-3.1484-0.41016-1.125-1.0586-2.1445-1.8984-2.9961-0.89062-0.95703-1.8945-1.8711-2.9727-2.8789l-0.78906-0.74609-0.18359-0.1875-0.1875-0.20703-0.070312-0.09375-0.35156-0.39453c-0.42188-0.51563-0.86719-1.0312-1.3125-1.5234l0.003907-0.003906c-3.2305-3.6016-6.0625-7.5391-8.4492-11.742-1.6445-2.9297-2.5977-6.1953-2.7852-9.5508-0.03125-0.90625 0.058594-1.8086 0.25781-2.6914 0.16016-0.58203 0.30469-0.89062 0.42188-0.89062 0.35156 0 0.375 1.3828 0.84375 3.418 0.74219 2.957 1.9844 5.7695 3.6719 8.3086 2.625 3.8164 5.5586 7.4102 8.7773 10.742 0.44531 0.49219 0.91016 0.98438 1.3789 1.4961l0.33203 0.39453 0.089844 0.089843 0.1875 0.16406 0.72266 0.67578c1.0078 0.89062 2.1289 1.875 3.2305 3.0195 1.2578 1.2461 2.2148 2.7578 2.8086 4.4219 0.57812 1.8906 0.46484 3.9258-0.32812 5.7383-0.68359 1.7852-1.8594 3.3438-3.3906 4.4883-0.72266 0.53906-1.5 0.9375-1.8516 1.1797v0.003907c-0.027344 0.007812-0.050781 0.023437-0.070312 0.046875 0.35938 1.0977 0.86328 2.1445 1.5 3.1133 0.71484 1.0898 1.4883 2.1406 2.3125 3.1484 0.90234 1.1133 1.6797 2.3203 2.3203 3.6016 0.22656 0.49609 0.40625 1.0156 0.53906 1.5469 0.72266-0.46875 1.4258-0.91406 2.0586-1.3594 0.44531-0.375 0.9375-0.70312 1.3125-1.0547l0.53906-0.53516 0.28125-0.23438 0.32812-0.39453c0.42188-0.46875 0.96094-1.0312 1.2617-1.4531 0.30469-0.42188 0.63281-0.78906 0.91406-1.2617h-0.003906c0.57812-0.85938 1.0391-1.7969 1.3594-2.7812zm-11.141 89.086c-1.543-18.582 0.16406-37.469-5.4023-55.297-7.6758 10.109-21.32 14.168-33.16 17.645l-0.003906 0.007812c-0.3125 0.078125-0.63672 0.11719-0.96094 0.11328-2.5195 2.3047-5.5898 3.9297-8.9141 4.7227-11.91 3.8594-24.336 2.9297-36.578 1.1797-2.1211-0.0625-4.2383-0.24219-6.3398-0.53906 2.9727 1.0273 5.7578 1.8516 8.2148 2.5273 4.3359 0.73828 8.6055 1.8086 12.777 3.2031-4.4375 0.80859-8.9961 0.64062-13.363-0.48438-8.7969-1.5234-17.273-4.5156-25.078-8.8477 1.1406 3.5547 2.1016 7.1641 2.8789 10.812 0.82422 4.4648 2.3516 8.7656 4.5195 12.754 1.5352 2.5586 3.6211 4.7383 6.1055 6.3867 1.918 1.125 3.0391 1.7539 2.9258 2.0156s-1.3594 0.089844-3.543-0.63281c-3.1406-1.2969-5.8477-3.4531-7.8164-6.2227-1.3398-1.8789-2.4453-3.9141-3.2969-6.0625-0.9375-2.4023-1.7422-4.8555-2.4102-7.3477-1.0859-4.832-2.6328-9.5469-4.6133-14.086-0.65234 5.6172-1.2852 11.234-1.4023 16.926-0.007813 8.6406-0.66406 17.27-1.9648 25.809 18.219-1.3594 36.5-1.6797 54.758-0.95703-3.4844-1.1484-6.8281-2.6875-9.9688-4.5859-3.3594-2.0664-6.4336-4.5625-9.1484-7.4219-1.8008-2.0586-2.7148-3.2969-2.5273-3.4844 0.51562-0.5625 4.6797 4.0703 13.055 8.4688v0.003906c4.957 2.5117 10.242 4.3086 15.703 5.332 6.7695 1.2109 13.625 1.8477 20.5 1.8984 7.3008 0.18359 14.367 0.18359 20.801 0.53906 0.84375 0.046875 1.5234 0.046875 2.4805 0.13672 0.046875 0 0.09375 0.023438 0.14062 0.023438 3.1289-0.27344 6.2383-0.71875 9.3125-1.332-3.7812-6.7227-6.6328-13.926-8.4805-21.418-1.2148-4.9727-2.1523-10.012-2.8047-15.09-6.9102 2.2891-14.031 3.8711-21.258 4.7227-3.0898 0.62891-6.2695 0.69141-9.3828 0.1875-0.18359-1.0977 13.809-2.3398 31.488-9.1289l2.1758-0.84375 0.35156 2.3438c0.78906 5.3086 1.8008 10.996 3.25 16.828v-0.003907c1.6562 6.625 3.9922 13.055 6.9805 19.195zm-12.238-56.418v0.003907c-2.3125 0.8125-4.7344 1.2617-7.1875 1.332-3.9492-0.003906-7.8945-0.27734-11.809-0.82031-1.875 0.46875-3.9102 1.0547-6.0859 1.7773l-2.6445 1.0312 0.003906 0.003907c0.91016 3 1.6211 6.0547 2.1289 9.1484 9.0703-2.6797 18.992-5.793 25.594-12.484zm-30.867-245.61c0.55859-2.3164 1.6602-6.8555-1.1016-8.3555-2.082-1.1211-3.4648 0.11719-4.4453 1.8008l0.003906 0.003906c-0.16016 1.543-0.40234 3.0742-0.73047 4.5859-0.53906 4.0078-1.3945 7.9688-2.5508 11.844-0.027344 0.20312-0.042969 0.40234-0.046875 0.60547 4.4648-1.8711 7.7656-5.7656 8.8711-10.48zm-4.5195-14.086c1.0547-6.7422 3.6758-13.551 3.4648-20.289-0.375-11.305-17.48-22.559-27.918-25.551-5.832-1.8867-12.117-1.8789-17.945 0.023438-1.3242 0.47656-2.6055 1.0586-3.8398 1.7305 6.1523 0.76172 12.098 2.707 17.504 5.7305 4.9219 2.7383 10.047 5.0938 15.328 7.0469 0.63672-0.039062 1.2539 0.23438 1.6562 0.73047 0.39844 0.49609 0.53125 1.1602 0.35938 1.7734-2.9961 11.328 4.8203 20.102 7.9062 30.445 1.0352-0.78516 2.2227-1.3438 3.4883-1.6367zm3.043 71.957c2.2695-11.445-2.8281-20.523-9.7812-29.23-0.5625-0.42188-1.1445-0.84375-1.707-1.3125-2.8086 10.574-6.25 24.336-15.258 30.328 0.28125 0.09375 0.53516 0.16406 0.78906 0.26172v0.003907c2.8203-2.1406 5.5195-4.4297 8.0977-6.8555 0.73047-0.49219 1.6016-0.72266 2.4805-0.65625 5.4531 1.7539 10.629 4.2656 15.383 7.4648zm-0.58594 203.7c3.9102-1.3828 1.4766-6.9492-0.019531-10.574l-0.21094 0.070312v0.003906c-3.2734 1.3242-6.6641 2.3281-10.133 2.9961-4.6758 0.82422-9.4219 1.168-14.168 1.0273 1.3008 3.5664 1.3008 7.4805 0 11.047 2.9023 0.11328 5.8125 0.023437 8.7031-0.25781 5.4336-0.78125 10.75-2.2266 15.828-4.3086zm-9.1914-270.11v-0.046875c-0.11719-0.58594-0.23438-1.1797-0.39453-1.7539-3.1602 9.9336-7.6211 19.41-13.27 28.176-1.7812 3.4844-4.4609 6.4297-7.7656 8.5273-3.3047 2.0977-7.1133 3.2734-11.023 3.4062-0.52734 0.20312-1.1133 0.17969-1.625-0.0625-0.50781-0.24609-0.89453-0.6875-1.0664-1.2266-0.32812-0.95703-0.60938-1.9688-0.89062-3.0195-0.11719 1.4688-0.57422 2.8867-1.3359 4.1445-1.582 2.6133-4.2891 4.3438-7.3242 4.6797-4.6406 0.97656-9.4414-0.67969-12.496-4.3047-1.3633 0.96875-2.9648 1.5508-4.6328 1.6836 14.109 6.7617 27.688 8.7969 41.582-0.89062l0.003906 0.003907c8.1016-5.332 14.113-13.301 17.008-22.559 0.53906-3.3945 1.5469-6.6914 2.293-10.039 0.28125-1.875 0.51562-3.7656 0.69922-5.7344l0.003906-0.003906c0.027344-0.26953 0.09375-0.53125 0.19141-0.78516 0.019531-0.054688 0.042968-0.13281 0.042968-0.19531zm-3.2305-9.5469h-0.003907c0.007813-0.050781 0.023438-0.097656 0.050781-0.14062-3.3438-7.6523-7.4141-14.715-5.8711-23.68-6.6016-2.3164-12.004-7.0469-18.789-9.0547-5.3594-1.6133-13.57-4.2344-18.895-1.1484-1.4766 1.8008-2.9023 3.8867-4.5391 6.3203-6.2266 9.2656-12.148 16.191-10.742 27.895 0.10938 0.69531-0.089844 1.4023-0.53906 1.9414-0.019531 0.042969-0.042968 0.082031-0.074218 0.11719-4.2539 7.2773-6.2812 15.641-5.8242 24.059 2.5742-1.0547 4.7734-2.8828 7.4375-3.7227 0.63281-0.18359 1.2617-0.30469 1.875-0.42188-0.20312-0.10156-0.39844-0.21875-0.58594-0.35156-1.6406-1.1367-2.3281-3.2266-1.6836-5.1172 0.25781-0.73047 0.61328-1.4219 1.0547-2.0586 0.75-1.0156 1.5938-1.957 2.5273-2.8086 0.78125-0.72266 1.5234-1.4883 2.2227-2.293 1.2656-1.4297 2.3125-3.0352 3.1094-4.7734 0.37109-0.79688 0.69141-1.6172 0.96094-2.457 0.16406-0.84375 0.42188-1.6602 0.51562-2.4844s0.23047-1.5742 0.23047-2.3867v0.003906c0.007812-0.71484-0.027344-1.4297-0.11328-2.1406-0.19922-2.207-0.87109-4.3438-1.9688-6.2695-0.78906-1.2852-1.6836-1.5469-1.6602-1.8516-0.023438-0.23047 1.2852-0.51563 2.7852 0.82031h0.003906c1.8398 1.8633 3.0859 4.2344 3.5742 6.8086 0.22656 0.85156 0.375 1.7188 0.44531 2.5977 0.03125 0.91797 0.015625 1.8398-0.046875 2.7539-0.074219 1-0.21484 1.9922-0.42188 2.9727-0.23438 1.0469-0.55469 2.0703-0.95312 3.0664-0.875 2.1211-2.0703 4.0938-3.543 5.8477-0.73438 0.90234-1.5234 1.7539-2.3633 2.5508-0.75781 0.6875-1.4492 1.4492-2.0586 2.2734-0.22266 0.30859-0.40234 0.64453-0.53906 1.0039-0.054687 0.14062-0.070312 0.29297-0.042968 0.44141 0 0.046875 0.11328 0.1875 0.32812 0.375 0.29688 0.21484 0.61719 0.38672 0.95703 0.51562l0.58203 0.23438 0.78906 0.20703 1.5234 0.42187v0.003907c0.59375 0.15625 1.1719 0.36328 1.7305 0.60938 0.30469 0.13672 0.62891 0.28125 0.89062 0.42188l0.62891 0.39453c0.89453 0.54297 1.7383 1.1641 2.5273 1.8477 0.46875 0.40234 1 0.72656 1.5742 0.95703 0.52344 0.10937 1.0703 0.035156 1.543-0.20703 0.47266-0.25391 0.85938-0.63672 1.1211-1.1055 0.57422-1.0195 0.91797-2.1523 1.0078-3.3203 0.10547-0.97266 0.12891-1.9492 0.074219-2.9258-0.046876-1.6133-0.21094-2.5508 0.046874-2.668 0.26172-0.11719 0.91406 0.65625 1.4727 2.3906 0.33594 1.0469 0.53906 2.1289 0.60938 3.2266 0.15234 1.5742-0.097656 3.1602-0.72656 4.6094-0.51172 1.1406-1.3945 2.0703-2.5039 2.6445 0.44141 0.1875 0.88672 0.35156 1.3086 0.5625 2.1641 0.96484 4.0703 2.4336 5.5508 4.2852 2.4062 3.5781 4.0742 7.6055 4.9102 11.836 10.484-1.543 13.902-8.4688 18.789-17.27 1.2383-2.2422 2.4805-4.4922 3.6289-6.7617h0.003906c0.13672-1.1211 0.13672-2.25 0-3.3711-0.089843-0.71875-0.42188-1.3828-0.9375-1.8906-0.53906-0.43359-1.1719-0.73047-1.8516-0.86719-0.35156-0.070312-0.67578-0.16406-0.96094-0.23438-0.30469-0.039062-0.60938-0.089843-0.90625-0.16406-0.51562-0.14062-0.84375-0.35547-0.89062-0.60938s0.16016-0.58594 0.58203-0.89062c0.21094-0.16406 0.49219-0.32812 0.78906-0.51562 0.43359-0.15234 0.87891-0.27734 1.332-0.37109 1.3359-0.26562 2.7266-0.042969 3.9102 0.63281 0.76172 0.43359 1.4062 1.0547 1.8711 1.7969 1.7344-4.1758 2.8008-8.6016 3.1562-13.113zm-22.906 72.918c11.441-0.58594 15.492-15.492 18.203-26.512h-0.003906c-2.7539 2.918-5.8945 5.4453-9.3359 7.5078-11.02 7.3906-24.855 9.2188-37.414 4.9414-0.09375 1.1797-0.11719 2.8555-0.11719 3.9766 0.39453 0.16406 0.84375 0.33203 1.2383 0.51562 8.8008 3.7461 17.82 6.9648 27.004 9.6406zm-3.0195 209.95c4.4492 0.070312 10.18-0.58594 9.0312-5.1484-0.42188-1.6367-0.89062-3.2539-1.3828-4.8438-1.1211-0.09375-2.2461-0.1875-3.3945-0.30469-4.1406-0.44531-8.1211-1.0078-11.887-1.5938-0.23438-0.019531-0.46875-0.089844-0.67969-0.11328 0.35547 3.6953 1.1484 7.3477 1.8281 11.02zm-15.191-234.69c4.7969-1.4062 4.4023-6.4102 4.2383-10.766-0.023437-0.070313-0.070312-0.11719-0.09375-0.1875-0.10547-0.46484-0.33203-0.89453-0.65625-1.2383-0.15625-0.19531-0.28906-0.40625-0.39453-0.63281-8.0273-1.4531-18.156-8.5664-24.617-3.7695-0.046874 3.3242-0.30859 6.6914-0.09375 9.9922 1.2148 3.8867 4.2812 5.3125 7.3711 2.3633 0.066406-2.2461 3.7656-2.1328 4.0469 0.32813 0.53516 4.1016 7.1133 4.8047 10.199 3.9102zm2.668 233.16v0.003906c-0.81641-3.8555-1.4023-7.7539-1.7539-11.676-1.5742-0.35547-3.1484-0.84375-4.6328-1.3125-3.5234-1.1602-6.9023-2.7344-10.062-4.6797-0.070312 3.7422-0.39453 7.4375-0.78906 11.141h0.003906c5.4883 2.7891 11.27 4.9727 17.234 6.5078zm-5.9023-251.75c-1.7617-0.78125-3.2773-2.0195-4.4023-3.582-2.0664-0.16797-4.1406-0.12891-6.1992 0.12109 3.6055 0.89062 7.1445 2.0391 10.586 3.4414zm-12.66 27.309c0-0.023437 0-0.023437 0.023437-0.046875-1.4297-0.58203-2.8828-1.2617-4.3516-1.9688-7.5625 2.6445-15.398 3.2266-22.371 7.5117h-0.003906c-0.078125 0.035156-0.16016 0.074219-0.23438 0.11719 0.027343 0.17187 0.042969 0.34375 0.046875 0.51562 3.5117-1.2852 7.1641-2.3438 10.695-3.25 5.2734-1.1211 10.754-0.77734 15.848 0.99219 0.035157-1.3047 0.14844-2.6016 0.33203-3.8906zm-4.4414 216.25c0.35156-3.1094 0.62891-6.2461 0.69922-9.4062-9.3594-8.2656-16.238-20.172-24.453-29.555-10.156-11.652-19.047-23.469-32.195-31.988v-0.003906c-0.20312-0.13281-0.39062-0.29297-0.5625-0.46875-0.21094-0.078126-0.41797-0.17969-0.60938-0.30078-10.812-7.2539-25.297-1.7539-36.902 0.67578-5.0312 1.0781-10.18 2.082-15.258 3.2539v0.003906c0.50781 2.4648 0.84375 4.9648 1.0078 7.4766 2.6445-0.98047 5.2383-1.8945 7.7461-2.6914 5.1055-1.6016 10.301-2.9062 15.559-3.9062 8.9609-1.6836 14.648-1.7773 14.695-1.2852 0.1875 1.0508-16.926 3.4844-37.84 11.91 0.046875 4.4453-0.20703 8.9141-0.30469 13.547-0.23047 10.789 0.070312 21.672 0.58594 32.457h0.003907c0.48828 20.574 3.8008 40.984 9.8398 60.656 31.168-0.14062 62.316 0.13672 93.531 1.8516 2.2227-11.516 1.6367-22.98 2.4844-34.637 0.42188-5.8477 1.3086-11.605 1.9688-17.41l-0.1875-0.28125zm-26.371-208.5c0-0.046875-0.019531-0.070312-0.019531-0.11719-0.72656-8.2656-2.3633-16.402-3.8398-24.52v-0.003907c-0.51562 8.8633-0.51562 17.746 0 26.609 1.2148-0.70312 2.5273-1.3594 3.8594-1.9688zm-4.2812 52.113 1.3359-0.69922c-2.0312-1.875-2.707-4.7969-1.7109-7.375 0.58984-1.2148 1.3125-2.3594 2.1562-3.4141-1.0508 0.39453-2.0352 0.75-3.0195 1.0781-0.28125 0.62891-0.55859 1.2383-0.89063 1.918-1.5586 2.9492-0.94141 6.5742 1.5 8.8477zm-2.2422 98.121c-0.44531-0.98047-0.86719-1.9688-1.2617-3.0391l-0.21094-0.5625-0.070313-0.21094-0.070312-0.20703-0.066406-0.26172-0.28516-1.0742c-0.18359-0.72266-0.375-1.4062-0.53516-2.1992l-0.003906-0.003906c-0.30859-1.6914-0.52734-3.3984-0.65625-5.1172-0.25391-3.3203-0.18359-6.6016-0.23047-9.9219h-0.003906c0.050781-3.0742-0.12109-6.1445-0.51562-9.1953-0.09375-0.78906-0.23438-1.6172-0.375-2.4844-2.1055-7.7891-2.832-15.82-4.6133-23.727l0.003906 0.003906c-2.0391-7.6836-3.332-15.543-3.8633-23.473-0.32812 0.046875-0.62891 0.066406-0.95703 0.11328 0.023437 0.11719 0.023437 0.21094 0.046874 0.35547-0.39844 11.277-2.875 22.387-7.3047 32.77-3.3242 8.5664-11.066 16.828-13.574 25.586v-0.003906c4.7188 0.13281 9.3125 1.5664 13.27 4.1445 0.20312 0.13672 0.39062 0.29297 0.5625 0.46875 0.21484 0.074219 0.41797 0.17578 0.60937 0.30469 7.4414 5.0117 14.199 10.973 20.102 17.734zm-1.3125-145.55c0-0.09375-0.023437-0.18359-0.023437-0.28125v0.003906c-0.050782 0.027344-0.10938 0.050781-0.16406 0.070312-10.719 3.1797-17.949 12.516-24.797 20.859 0.9375 1.0391 1.7109 2.2148 2.293 3.4883 1.2578-0.92188 2.5781-1.75 3.957-2.4805 2.5859-1.3555 5.2891-2.4844 8.0742-3.3672 0.86719-0.28516 1.6836-0.53906 2.5039-0.78906l-0.003906-0.085938c-0.39062-6.8086 2.6758-13.359 8.1562-17.418zm-2.0625 50.242c0.42188-0.23438 0.82031-0.39453 1.2383-0.60938h0.003907c-1.1367-1.3555-1.9961-2.9219-2.5273-4.6094-3.043 2.1758-6.4102 3.7422-9.4453 5.9023-1.8008 1.2617-10.113 8.9141-2.9297 8.9844v0.003906c2.4453-0.007812 4.8789-0.38672 7.2109-1.1211 0-0.16406-0.023437-0.375-0.023437-0.53906-0.003906-0.60156 0.082031-1.2031 0.25391-1.7773 0.55859-1.6484 1.5938-3.0898 2.9727-4.1445 1.0078-0.80469 2.0938-1.5078 3.2461-2.0898zm-2.9062-10.629 0.003907 0.003906c-0.097657 0.019531-0.19141 0.050781-0.28125 0.09375-1.8281 0.65234-3.7891 1.5195-5.8242 2.2188-0.58594 0.21094-1.1797 0.39453-1.7539 0.58594h-0.003906c0.37891 0.83203 0.70312 1.6836 0.98047 2.5508 2.7031-1.2383 5.0664-3.1172 6.8828-5.4688zm-11.992 8.5977c-0.050782-0.097656-0.089844-0.20312-0.11328-0.30859-0.25-1.4453-0.84375-2.8086-1.7305-3.9766-0.12891-0.11719-0.24609-0.25-0.35156-0.39453-1.5859-0.039063-3.1484-0.40625-4.5898-1.0781l-0.046876 0.78906c-0.089843 1.7422-0.42969 3.4648-1.0039 5.1172l-0.070312 0.30859-0.11719 0.23047-0.023437 0.070313-0.070313 0.11719-0.23047 0.51172-0.51563 0.98438h-0.003906c-0.45312 0.75-0.98047 1.457-1.5742 2.1055-1.9883 1.8867-4.3828 3.2969-6.9961 4.1211-4.1406 1.2852-6.668 1.7539-6.9023 1.2852s2.082-1.9688 5.7812-3.8594h-0.003906c2.0039-1 3.8242-2.3281 5.3828-3.9336 0.14062-0.21094 0.28516-0.39453 0.44531-0.60938v-0.003906c0.21484-0.20312 0.38281-0.44922 0.49219-0.72266l0.44531-1.0078 0.23047-0.51562 0.046874-0.11328 0.046876-0.21094c1.2852-5.6641 0.51562-13.223-4.4023-17.105l0.003906-0.003906c-0.6875-0.47266-1.4336-0.85156-2.2227-1.1211-0.70312-0.14062-1.3125-0.39453-1.8984-0.49219-1.1797-0.21094-1.8516-0.44531-1.875-0.69922-0.023437-0.25391 0.63281-0.5625 1.8281-0.84375h0.003907c0.78125-0.12109 1.5703-0.16016 2.3594-0.11719 1.0859 0.082031 2.1523 0.34766 3.1484 0.78516 1.3828 0.625 2.6094 1.5547 3.582 2.7188 0.28516-0.63672 0.64062-1.2422 1.0547-1.8047 0.019531-0.046876 0.066406-0.070313 0.089843-0.09375-0.44141-0.35547-0.78125-0.82422-0.97656-1.3594-1.2383-3.4414-4.7227-3.6016-6.7891-5.707h-0.003907c-0.33203 0.32812-0.70703 0.60156-1.1211 0.82031-0.94922 0.5-2.0156 0.75-3.0898 0.72266-1.4414-0.09375-2.8555-0.42578-4.1875-0.98438-0.81641-0.32812-1.6055-0.72656-2.3594-1.1797-0.51562-0.32813-0.86719-0.60938-0.82031-0.89063s0.375-0.51562 1.0508-0.62891c0.91406-0.11328 1.8359-0.12891 2.7539-0.046875 1.1445 0.12891 2.2969 0.14844 3.4414 0.066407 0.91797-0.007813 1.7422-0.57031 2.082-1.4219 0.33984-0.86328 0.23438-1.832-0.28125-2.6016-0.29297-0.50391-0.62109-0.99219-0.98047-1.4492-1.0117-0.48438-2.1133-0.75391-3.2344-0.78906-0.35156 0.5-0.77734 0.94141-1.2617 1.3125-1.8672 1.0898-4.0156 1.6094-6.1758 1.4961-2.0547-0.035156-4.1016 0.26563-6.0625 0.88672-0.85547 0.27344-1.6562 0.70312-2.3594 1.2656-0.46875 0.39844-0.78906 0.94531-0.91406 1.5469l-1.0273 2.9961c1.0859-0.48438 2.2109-0.85938 3.3672-1.1289 2.293-0.51562 4.6875-0.25 6.8125 0.75391 1.6875 0.89844 3.1758 2.1328 4.375 3.625 1.2188 1.5352 2.3047 3.1719 3.25 4.8906 0.11719 0.046875 0.26172 0.070312 0.39453 0.11719v0.003906c1.2734 0.44531 2.4297 1.1836 3.3711 2.1523 0.74219 0.79687 1.375 1.6914 1.8711 2.6641 0.33594 0.71094 0.61719 1.4453 0.84375 2.1992 0.96484 0.17969 1.8594 0.61719 2.5977 1.2656 0.78906 0.72656 2.2227 3.5117 0.375 3.8359-1.0273 0.1875-1.5742-1.4727-2.4102-1.7773-3.1484-1.1797-5.0312 4.6133-4.4023 6.9766v-0.003906c0.11719 0.30078 0.19531 0.61719 0.23438 0.9375 0.11719 0.30469 0.33203 0.62891 0.42188 0.89062 0.21094 0.51562 0.23438 0.91406 0.046875 1.0977s-0.58203 0.1875-1.1211 0c-0.33594-0.089844-0.65234-0.23047-0.94531-0.41406-0.40234-0.36719-0.77734-0.76172-1.1211-1.1797-1.7617-2.6367-1.668-6.0977 0.23047-8.6367 0.85547-1.2773 2.0977-2.2422 3.543-2.7539-0.21094-0.30859-0.44531-0.60938-0.67578-0.9375-0.96875-1.3555-2.3516-2.3594-3.9375-2.8594-0.90625-0.19922-1.8477-0.19922-2.7539 0-0.50781 0.085937-1.0078 0.21094-1.4961 0.375-0.29688 0.085937-0.58594 0.19531-0.86719 0.32812l-0.46875 0.16406c-0.023437 0.019532-0.070312 0.019532-0.11719 0.042969l-0.14062 0.09375c-1.6289 0.90625-2.6562 2.6094-2.6875 4.4727-0.14844 1.7148 0.18359 3.4414 0.95312 4.9805 0.51953 1.0586 1.2344 2.0039 2.1094 2.7891 0.72266 0.58203 1.2617 0.93359 1.1797 1.2148-0.082032 0.28516-0.65625 0.42188-1.707 0.20703v0.003906c-1.5742-0.41406-2.957-1.3633-3.9062-2.6914-1.4922-1.8906-2.3008-4.2266-2.2969-6.6328-0.027343-1.5078 0.32031-2.9922 1.0078-4.332 0.76562-1.5273 2.0078-2.7617 3.543-3.5117l0.28125-0.16016 0.35156-0.14062 0.44531-0.18359-0.003907-0.003906c0.32031-0.12891 0.65234-0.23828 0.98438-0.32812 0.72656-0.23438 1.4688-0.40625 2.2266-0.51172 0.39062-0.046875 0.78516-0.070312 1.1797-0.070312-0.72266-0.84375-1.5234-1.7305-2.457-2.6445-2.0156-2.4297-5.2461-3.4883-8.3086-2.7188-0.90625 0.24219-1.7852 0.58203-2.6211 1.0078l-0.60547 0.28125-0.49219 0.35156v-0.003907c-0.33203 0.23828-0.62891 0.51172-0.89062 0.82031-1.168 1.543-1.9062 3.3672-2.1289 5.2891-0.09375 0.46875-0.14062 1.1211-0.21094 1.6836l-0.046874 1.5742-0.003907 0.003906c-0.082031 1.0742-0.074219 2.1562 0.023438 3.2305 0.023437 0.53906 0.046875 1.0508 0.070312 1.5742 0.023438 0.52344 0.16406 0.9375 0.23438 1.4062h0.003906c0.10938 0.96094 0.34375 1.9023 0.69922 2.8047 0.76562 3.1758 2.7422 5.9219 5.5117 7.6562 2.082 0.92188 4.3242 1.4375 6.6016 1.5195 1.7539 0.09375 2.7539 0.25391 2.7539 0.51562 0 0.26172-0.9375 0.62891-2.6211 1.0273-2.6211 0.52344-5.3398 0.34766-7.8711-0.51172-0.89062-0.30469-1.7227-0.75391-2.4609-1.3359-0.39453-0.28516-0.82031-0.58594-1.1797-0.91406l-1.0039-1.1445c-0.69531-0.78516-1.2891-1.6484-1.7812-2.5742l-0.42188-0.70312c-0.21094-0.44531-0.21094-0.51562-0.35547-0.78906-0.18359-0.46875-0.375-0.9375-0.58203-1.4062l0.003906 0.003906c-0.44531-1.0547-0.77734-2.1523-0.98438-3.2773-0.11719-0.58594-0.28125-1.2148-0.35156-1.8008-0.070313-0.58594-0.09375-1.1797-0.14062-1.7773v-0.003906c-0.12109-1.1875-0.15234-2.3828-0.089844-3.5781 0-0.65625 0-1.1484 0.042969-1.9219 0.09375-0.58203 0.09375-1.1211 0.23438-1.8281v0.003906c0.27344-1.6953 0.79297-3.3438 1.543-4.8867-0.30469 0.09375-0.61719 0.16406-0.93359 0.20703-4.6836 0.75781-9.4648-0.55859-13.105-3.6016-0.16406 0.64844-0.39844 1.2734-0.69922 1.8711-0.51562 0.97266-1.1016 1.9023-1.7578 2.7852-0.98438 1.2617-1.5938 2.3398-2.0352 2.1992-0.44141-0.13672-0.72656-1.2148-0.1875-3.207 0.54687-1.5508 0.95312-3.1484 1.2148-4.7734-0.66797 0.66406-1.4141 1.2422-2.2227 1.7305-1.6289 1.7344-2.8594 3.8047-3.6016 6.0625-1.0117 3.4805-1.0469 7.1719-0.09375 10.672 0.5 2.082 1.3203 4.0742 2.4336 5.9023 0.5625 1.0039 1.1914 1.9727 1.8711 2.9023 0.62891 0.95703 1.4492 1.8242 2.1992 2.7539h0.003906c3.0898 3.3008 6.8477 5.9102 11.02 7.6523 3.4922 1.4531 7.1211 2.543 10.836 3.2539 6.4336 1.2383 10.602 1.5195 10.602 2.1523 0 0.28125-1.5742 0.65234-4.3281 0.78906l-0.25391 0.60938h-0.003906c-0.48828 0.99219-0.30078 2.1797 0.46484 2.9727 1.1367 1.207 2.4922 2.1836 4 2.875 3.8594 1.7891 7.9609 3.0039 12.172 3.6055 1.9688 0.33203 3.9688 0.47266 5.9648 0.42188 0.84766-0.019531 1.6914-0.15234 2.5039-0.39453 0.16406-0.03125 0.32031-0.085938 0.46875-0.16016l0.16406-0.070313 0.30469-0.1875c0.42187-0.23047 0.84375-0.48828 1.2383-0.72266v-0.003907c2.6133-1.6719 4.832-3.8945 6.5078-6.5039 0.35156-0.53516 0.67578-1.0508 0.96094-1.5742 0.042969-0.96094 0.11328-1.8984 0.11328-2.8281v-0.003906c-0.015625-0.15625-0.007812-0.3125 0.023438-0.46875-1.6875-0.19922-3.2305-1.0469-4.3047-2.3594-0.57031 0.82812-1.1953 1.6133-1.8711 2.3594-1.7734 1.9766-3.8398 3.6641-6.1328 5.0078-1.9258 1.082-4.0664 1.7344-6.2695 1.918-1.4609 0.13672-2.9336-0.019532-4.3281-0.46484-0.91406-0.30859-1.4297-0.60938-1.4062-0.89062 0-0.63281 2.4102-0.58594 5.2656-1.4062 1.7266-0.49219 3.3594-1.2617 4.8438-2.2695 1.8242-1.3086 3.5117-2.8047 5.0273-4.4648 2.9102-2.9102 4.8125-6.6719 5.4297-10.742 0.58594-3.2305 0.9375-5.3828 1.5195-5.3828 0.44531 0 1.0312 1.7305 1.2188 4.7227 0.70703-0.67188 1.4492-1.3047 2.2305-1.8867zm-11.125 54.223c4.3008-9.1289 7.3711-18.793 9.1289-28.73-1.3594 1.8672-3.0117 3.5039-4.8945 4.8438-0.39453 0.25391-0.78906 0.51562-1.2148 0.78906l-0.30469 0.1875c-0.15625 0.10547-0.32031 0.19922-0.49219 0.28125-0.28906 0.15234-0.59766 0.28125-0.91406 0.37109-1.1172 0.37109-2.2852 0.59375-3.4609 0.66016-2.2773 0.11328-4.5625-0.019531-6.8086-0.39453-4.6406-0.66016-9.125-2.1445-13.246-4.3789-1.9258-1.0078-3.5977-2.4414-4.8906-4.1914-0.625-0.94531-0.98047-2.043-1.0312-3.1797-0.011719-0.60938 0.097656-1.2148 0.32812-1.7773-0.30469-0.16406-0.60547-0.30469-0.91406-0.44531-0.84375-0.046875-1.7305-0.09375-2.6875-0.16406-4.0352-0.35547-8.0078-1.2422-11.809-2.6445-4.7773-1.7734-9.0703-4.6445-12.539-8.3789-0.90234-1-1.7461-2.0508-2.5312-3.1484-0.74219-1.0469-1.4141-2.1406-2.0117-3.2734-1.2422-2.1602-2.125-4.5078-2.6211-6.9531-0.93359-4.1641-0.57422-8.5156 1.0312-12.473 0.46484-1.0234 1.0352-1.9961 1.707-2.8984-1.9922 0.73438-3.9453 1.5781-5.8516 2.5234-6.9219 3.582-7.5117 11.512-9.8945 18.277v0.003907c0.066406 0.26562 0.097656 0.54297 0.089843 0.81641-0.25391 12.027 11.328 20.262 7.5156 32.902 2.8359 2.0781 4.957 4.9922 6.0586 8.332 0.92969 3.5312 1.2969 7.1875 1.1016 10.832 0.20703 0.16406 0.39844 0.35156 0.5625 0.5625 13.547 17.387 34.586 13.223 53.797 10.836 0.38281-0.054688 0.77734-0.023438 1.1484 0.089843 2.1523-2.918 4.043-6.0234 5.6484-9.2773zm-11.141 20.57c0.35938-1.8125 0.96484-3.5664 1.8008-5.2188-19.305 2.4141-39.477 4.7734-53.445-10.629l-0.003907 0.003906c-1.2852 3.0898-3.9141 5.4258-7.1328 6.3398 0.30469 0.82031 0.62891 1.6367 0.98047 2.4805h-0.003907c2.6836 6.457 3.0898 13.641 1.1523 20.359 3.9922-1.6328 8.0859-3 12.258-4.0977 12.621-3.5469 25.426-6.4023 38.359-8.5508 2.0156-0.29688 4.0234-0.52734 6.0352-0.69531zm-4.3945-126.05c0.91016-3.1797 0.023437-5.5469-4.1914-6.6914-1.1797-0.32812-2.4102-0.60938-3.6484-0.84375 0.30469 0.51562 0.60547 1.0273 0.96094 1.543l-0.003906 0.003906c1.5938 2.0742 3.4609 3.9297 5.5469 5.5078 0.14453 0.14844 0.27344 0.30469 0.39453 0.46875h0.9375zm-0.67969 9.4453-0.003906 0.003906c0.10547-0.78516 0.11328-1.5781 0.027344-2.3633-10.48-4.0977-22.113-10.766-32.012-3.6992 2.7852 1.7812 5.3242 3.9258 7.5547 6.3672 4.0039-2.0625 6.2266-3.9805 11.09-2.5078h0.003906c2.1211 0.8125 4.1641 1.8125 6.1094 2.9883 1.6836 0.86719 6.625 3.4883 7.2266-0.78516zm-9.9453 5.9453c-0.066407-0.046876-0.16016-0.066407-0.23047-0.11328-1.7539-0.98438-6.1094-3.9102-8.0742-2.5508-0.72656 0.51172-1.4531 0.98047-2.1758 1.4492 0.14062 0.16406 0.28125 0.32812 0.42188 0.51562 0.25391 0.14062 0.51562 0.30469 0.82031 0.49219h-0.007812c1.2656 0.92578 2.3906 2.0312 3.3477 3.2734 0.11719-0.11719 0.21094-0.25391 0.32812-0.35156h-0.003906c1.0586-0.98828 2.3242-1.7305 3.7031-2.1758 0.60938-0.21875 1.2344-0.39453 1.8672-0.52344zm-4.2578-20.379c-0.84375-1.2148-1.6836-2.4102-2.5273-3.6289-2.5273 0.09375-4.8398 0.70312-5.6836 2.5078l-0.003907-0.003907c0.36328-0.035156 0.73047-0.054687 1.0977-0.046875 2.4141 0.074219 4.8047 0.47266 7.1133 1.1875zm-7.1172 29.195c0.51562-0.49219 0.32812-1.4766-0.84375-3.0664h0.003906c-1.6328-2.1328-3.3984-4.1562-5.293-6.0625-2.0117-2.1289-8.4688-10.766-11.809-6.4609l0.003907 0.003906c-0.44141 0.58594-0.75391 1.2539-0.91406 1.9688 3.9805 5.6602 7.793 11.957 14.957 13.664 0.14062 0.023437 0.30469 0.023437 0.44531 0.046875 0.58594 0.066406 1.2148-0.046875 1.7773-0.023438zm-4.3047 233.05c-5.582-18.348-8.7266-37.352-9.3594-56.52-0.51562-10.977-1.0781-22.043-0.84375-33.02 0.09375-4.9648 0.46875-9.8398 0.49219-14.746-1.125 0.51562-2.2461 1.0078-3.3711 1.5234h0.003906c-5.8047 2.7344-11.469 5.7539-16.969 9.0547-4.4609 2.7148-8.7734 5.668-12.918 8.8477-7.0859 5.3789-11.066 9.4453-11.512 8.9844-0.32813-0.32812 2.8594-4.9609 9.7344-11.141l-0.003906 0.003906c4.0078-3.5703 8.2695-6.8398 12.758-9.7812 5.5312-3.5508 11.293-6.7344 17.242-9.5273 1.6641-0.74609 3.3008-1.4766 4.9414-2.1523-0.11328-2.7852-0.45703-5.5547-1.0312-8.2852-4.0234 1.0391-7.9844 2.3047-11.863 3.7969-23.645 9.9766-44.766 25.105-61.828 44.277-4.3242 5.0586-8.2344 10.457-11.695 16.141-3.6055 7.4414-7.8711 16.531-13.48 26.098-1.7773 3.2031-3.8125 5.9453-5.6875 8.7266-2.082 2.8789-4.1172 5.2891-6.1992 7.6758v-0.003906c-3.582 4.1641-7.6523 7.8828-12.125 11.066 17.246-0.82031 34.562-0.46484 51.832-0.32812 0.32812-0.13672 0.65625-0.25391 0.98437-0.39453v0.003906c1.1094-0.42969 2.1797-0.94531 3.207-1.543 1.1562-0.64453 2.2617-1.3789 3.3008-2.1992l0.72266-0.51562 0.84375-0.65234c0.5625-0.44531 1.1211-0.91406 1.6836-1.3594 1.1797-0.91406 2.3438-1.8516 3.543-2.7852 1.1992-0.9375 2.3633-1.9688 3.5781-2.9492l0.91406-0.74609 0.23438-0.1875 0.046875-0.046875 0.046875-0.042969 0.39453-0.42187 1.5195-1.6641v-0.003906c3.6484-4.5938 6.5234-9.7461 8.5195-15.258 1.9453-5.1172 3.3008-9.9219 4.4492-13.992 2.1992-8.1211 3.6953-13.223 4.2344-13.082 0.53906 0.13672 0 5.3359-1.5234 13.715l-0.003906-0.003906c-0.89844 4.957-2.1484 9.8477-3.7422 14.625-1.9375 6.0078-4.9609 11.613-8.9141 16.531-0.5625 0.65625-1.1445 1.2656-1.7305 1.875l-0.44531 0.46875-0.09375 0.11719-0.23047 0.18359-0.23438 0.1875-0.93359 0.74609c-1.2188 0.98438-2.4375 1.9453-3.6289 2.9023-1.1914 0.95703-2.4102 1.8281-3.543 2.7148-0.60547 0.44531-1.1797 0.86719-1.7539 1.3125l-0.86328 0.62891-0.35547 0.26172-0.20703 0.14063-0.44531 0.30469c-0.60938 0.375-1.1797 0.78906-1.7773 1.1797 3.0898 0 6.1797 0 9.2656-0.046874 21.621-0.20313 43.219-0.53516 64.82-0.69531zm-15.328-235.91c-1.0234-0.60156-1.9297-1.3867-2.668-2.3164-2.3516-2.2383-5.9492-2.5117-8.6133-0.65625-2.4141 2.5195-2.6641 6.4141-0.58594 9.2227 4.2383-1.8281 9.4102-3.2344 11.867-6.25zm-14.602 89.645c5.1172-1.6836 5.2656-8.375 4.6562-13.125-0.16406-2.4648-0.98828-4.8438-2.3867-6.8828-0.86719-1.2422-1.9531-2.3242-3.207-3.1836-0.98437-0.58203-1.0742-0.089844-1.1211 0.67969v0.003906c0.03125 0.14453 0.039062 0.29297 0.023437 0.44141v0.375c0.046875 0.26172 0.046875 0.52734 0 0.78906 0.003906 0.070313-0.003906 0.14063-0.023437 0.20703-0.35938 6.9648 0.33203 13.941 2.0586 20.695zm-1.1797 21.316c0.066406-1.2852 0.13672-2.5508 0.18359-3.7422-0.3125-3.3594-1.1914-6.6406-2.5977-9.7109-1.332-2.8711-2.3672-5.875-3.0859-8.9609-0.11719-0.60938-0.23438-1.2148-0.33203-1.8281-1.6133 3.7969-3.5 7.4727-5.6406 11-0.22266 0.38281-0.52344 0.71875-0.88281 0.98047-0.14062 0.16406-0.28516 0.35156-0.44531 0.51562-3.8867 3.7422 0.25391 11.234 2.7109 15 1.8984 3.1094 5.4336 4.8359 9.0547 4.4219 0.1875-0.72656 0.375-1.4531 0.53906-2.1523-0.91016-0.78125-1.6641-1.7266-2.2266-2.7852-0.41797-0.76953-0.77734-1.5664-1.0742-2.3867-0.93359-0.03125-1.8398-0.33984-2.5977-0.89062-0.78125-0.54688-1.4336-1.2578-1.918-2.082-0.78906-1.3125-0.86719-2.1055-0.60938-2.3164 0.25391-0.21094 1.0078 0.28125 2.0391 1.0078s2.6875 1.6602 3.5117 0.98047l1.25-1.0469 0.98047 1.918c0.33203 0.68359 0.70703 1.3828 1.1289 2.082zm-0.82031-50.637c1.8477-7.9102-3.543-14.91-6.3438-22.434-3.7773 5.6719-4.8164 12.738-2.832 19.258 0.14844 0.41406 0.19922 0.85547 0.14453 1.2891 0.22266 0.54688 0.27344 1.1523 0.13672 1.7305-1.6367 7.5117-3.2969 15.492-0.82031 22.746 1.8438-4.4414 3.1172-9.0938 3.793-13.855 0.023437-0.49219 0.046874-0.98047 0.046874-1.4727 0.015626-0.20312 0.046876-0.40625 0.09375-0.60937-0.003906-0.15625 0.003907-0.3125 0.023438-0.46875 0.66406-4.8086 3.0078-6.4375 5.7461-6.1797zm-81.121 147.01c0.49219-0.78906 0.9375-1.6133 1.4062-2.4336-1.5234 1.4648-3.2344 2.7227-5.082 3.7422-1.1445 1.2148-2.3789 2.332-3.6953 3.3516-0.53906 0.44531-1.0977 0.89063-1.6602 1.3555-0.5625 0.35547-1.1445 0.72656-1.707 1.1016-1.2148 0.78906-2.2461 1.4492-3.6289 2.293-4.7695 2.6875-9.1719 5.8008-13.312 8.4219-2.0859 1.3359-4.0508 2.5742-5.9727 3.6719v0.003907c-1.7578 1.0508-3.5703 2.0156-5.4297 2.8789-6.9766 3.3711-11.633 3.5781-11.746 3.1797-0.21094-0.60547 4.3711-1.918 10.434-5.6406 1.5469-0.9375 3.2539-1.9688 5.0117-3.2031 1.7969-1.1797 3.6719-2.5273 5.6602-3.9102 4.0273-2.7852 8.3555-5.9922 13.41-8.8438 0.35156-0.23438 0.69922-0.44531 1.0547-0.67969-18.105 4.9648-37.277 7.6758-49.426 23.379 5.3125 2.7109 14.602 1.8711 19.492 1.8242 6.4844-0.046875 12.965-0.35156 19.449-0.67578 1.0312-0.67969 2.1055-1.4297 3.2266-2.3164v-0.003906c4.1094-3.3945 7.8672-7.1953 11.211-11.348 1.8984-2.293 3.9375-4.918 5.7578-7.4766 1.8047-2.7969 3.8906-5.6523 5.5469-8.6719z"/> <path d="m508.06 437.34c-0.88281 3.9922-2.3984 7.8164-4.4961 11.328-3.1484 6.8086-8 15.934-13.57 25.879-4.5469 8.6719-9.5977 17.07-15.117 25.156-4.7539 6.1758-8.8477 8.5352-9.1445 8.2148-0.46484-0.44531 3.043-3.6953 6.8359-9.8398 4-6.0859 8.1875-15.605 13.969-25.48 5.5938-9.9453 10.789-18.836 14.562-25.297v-0.003906c1.7773-3.668 4.125-7.0312 6.9609-9.957z"/> <path d="m502.51 415.3c-0.60938 4.0508-1.9258 7.9648-3.8828 11.562-3.0898 6.9219-8.0742 16.051-13.777 25.902-5.7031 9.8516-10.602 18.836-13.879 25.508-3.1484 6.6914-5.0312 10.926-5.6172 10.738 0.29297-4.0977 1.3242-8.1094 3.043-11.84 3.6484-9.1133 8-17.93 13.012-26.371 5.7539-9.8984 11.043-18.699 14.695-25.137 3.5977-6.5234 5.8672-10.621 6.4062-10.363z"/> <path d="m481.05 346.47c2.4805 0.86719 3.9766 1.5742 3.9102 2.1289-0.066406 0.55469-1.8008 0.78906-4.4492 0.60938-2.6445-0.17578-6.2227-0.67969-10.039-1.1484h-0.003906c-3.1953-0.43359-6.4258-0.51953-9.6406-0.25391-2.293 0.1875-4.0273 0.74609-4.2578 0.21094-0.21094-0.44531 0.78906-1.8008 3.582-2.9062 3.4531-1.1719 7.1328-1.5 10.738-0.95312 3.457 0.41016 6.8633 1.1836 10.16 2.3125z"/> <path d="m479.11 381.08c0.46875 0.023438 1.0781 2.668 1.0312 7.0859-0.22266 5.7773-1.1172 11.512-2.668 17.082-3.543 13.012-9.1523 22.512-10.059 22.023-1.0312-0.49219 2.8047-10.438 6.2461-23.055 1.6602-6.2969 2.9727-12.07 3.6953-16.215 0.74609-4.2305 1.1445-6.9688 1.7539-6.9219z"/> <path d="m477.05 424.94c1.1445 0.46875-3.2969 14.977-7.7227 33.184-4.2578 18.25-7.8164 33.18-8.9375 32.949-1.0312-0.23437 0.78906-15.375 5.1172-33.852 4.4531-18.449 10.652-32.633 11.543-32.281z"/> <path d="m466 375.38c0.09375 0.78516 0.070313 1.582-0.070312 2.3633-0.10156 1.0117-0.26562 2.0195-0.49219 3.0156-1.0703 5.5781-1.8359 11.211-2.2891 16.875-0.5 5.8867-1.793 11.68-3.8438 17.223-0.375 0.96484-0.8125 1.9023-1.3047 2.8086-0.46875 0.74609-0.88672 1.3789-1.2617 1.8984-0.75 1.0039-1.2852 1.5195-1.5234 1.4023-0.23438-0.11719-0.1875-0.86719 0.14062-2.082 0.16016-0.60547 0.375-1.3359 0.67578-2.1758 0.30469-0.84375 0.375-1.7773 0.65625-2.8047v-0.003907c1.1602-5.5195 2.0039-11.098 2.5273-16.711 0.42188-5.8438 1.6016-11.613 3.5117-17.152 0.42188-1.0547 0.82031-1.9922 1.0508-2.7539 0.28516-0.66797 0.51562-1.3594 0.69922-2.0586 0.30859-1.1211 0.58594-1.8281 0.86719-1.8516 0.28125-0.023438 0.49219 0.65234 0.65625 2.0078z"/> <path d="m461.28 332.86c1.4961 0.5625 2.3633 1.1797 2.3125 1.707-0.089844 1.1797-4.1641 1.2383-8.4688 1.2383-1.7617 0.007813-3.5195 0.20312-5.2383 0.58594-1.1797 0.20703-2.3164 0.67578-2.668 0.23047-0.35156-0.44531-0.16406-1.4492 1.3828-2.7109v0.003906c1.8633-1.3672 4.1211-2.0898 6.4297-2.0625 2.125-0.03125 4.2422 0.30859 6.25 1.0078z"/> <path d="m426.04 508.83c-0.10938-0.054687-0.21094-0.125-0.30469-0.20703l-0.11719-0.11719-0.58203-0.51562-0.30859-0.28125-0.375-0.49219c-0.23047-0.35156-0.46875-0.69922-0.67578-1.0781-0.46875-1.0703-0.83594-2.1836-1.1016-3.3203-0.16797-0.82422-0.46875-1.6133-0.88672-2.3398l-0.25391-0.44531c-0.09375-0.11719-0.23438-0.21094-0.35156-0.33203l-0.32812-0.32812h-0.023438v-0.023438l-0.16406-0.070312-0.30469-0.18359c-0.44531-0.23438-0.89062-0.51562-1.2852-0.72266l-1.1016-0.39453c-0.72266-0.28125-1.6836-0.48828-2.5508-0.72266h-0.003906c-3.8242-0.55469-7.4297-2.1133-10.457-4.5156-0.12891-0.078125-0.24609-0.17578-0.35547-0.28125l-0.20703-0.23047-0.44531-0.46875-0.82031-0.89062c-0.5625-0.58594-1.1016-1.1797-1.6367-1.7305-0.53516-0.55078-1.0547-1.1445-1.5469-1.6836-0.46875-0.60938-0.9375-1.1797-1.3789-1.7773-1.8008-2.3125-3.3984-4.4023-4.6367-6.2969-1.2383-1.8984-2.3398-3.543-3.1484-4.918-1.6602-2.7109-2.4805-4.3047-2.2461-4.4688 0.23047-0.16016 1.4531 1.1445 3.4883 3.6016 1.0039 1.2188 2.2461 2.7148 3.6719 4.4727 1.4258 1.7539 3.0898 3.6719 4.918 5.7578 0.46875 0.53516 0.9375 1.0508 1.4023 1.6133 0.53906 0.51562 1.0781 1.0508 1.6406 1.5742 0.5625 0.52344 1.1445 1.1016 1.707 1.6602l0.89062 0.86719 0.44531 0.42188 0.18359 0.1875c0.023438 0 0.14062 0.09375 0.1875 0.11328v-0.003907c2.6992 1.9258 5.8516 3.1172 9.1484 3.4648 1.0117 0.21094 2.0117 0.47266 2.9961 0.78906l1.6406 0.60547c0.48828 0.21094 0.88672 0.46875 1.332 0.70312l0.33203 0.16016 0.16016 0.09375 0.070313 0.046875 0.16406 0.09375 0.070313 0.046875 0.78906 0.65234c0.23047 0.23047 0.51562 0.46875 0.72266 0.72266l0.5625 0.82031v0.003907c0.62109 1.0312 1.082 2.1523 1.3594 3.3281 0.20703 0.87891 0.48828 1.7383 0.83984 2.5742 0.0625 0.074219 0.10938 0.16016 0.13672 0.25391l0.046875 0.1875 0.30469 0.25391 0.58594 0.51562 0.070313 0.070312 0.046874-0.023437c-0.1875-0.11719-0.23437-0.1875-0.26172-0.23438h0.070312c0.023438 0 0.046875 0.070312 0.070313 0.070312 0.16406 0.11719 0.74609 0 2.082-0.375l0.003906 0.003907c0.36719-0.10938 0.74609-0.17188 1.125-0.1875 0.45703-0.054688 0.91797-0.015626 1.3555 0.11719 0.85156 0.19531 1.6367 0.61719 2.2734 1.2148l0.046876 0.046875c0.21094 0.23438 0.44531 0.46875 0.63281 0.72266s0.25391 0.46875 0.39453 0.67969v0.003906c0.90625 2.2188 1.5195 4.5469 1.8203 6.9258 0.35547 2.1758 0.60938 4.3047 0.86719 6.3633 0.65625 4.0234 0.96094 8.2383 1.4062 12.051v0.003906c0.22656 1.8789 0.34375 3.7695 0.34766 5.6602 0.046874 1.8359 0.09375 3.6172 0.14062 5.3359 0.14063 3.4414 0.023438 6.625-0.070312 9.5469v0.003907c0.19922 6.3047-0.34375 12.609-1.6133 18.789-0.60938 0-0.78906-7.2305-1.1797-18.789-0.09375-2.8828-0.14062-6.0625-0.42188-9.4453-0.09375-1.6836-0.21094-3.4414-0.33203-5.2422v-0.003907c-0.066406-1.8438-0.23828-3.6836-0.51172-5.5078-0.53906-3.7891-0.89062-7.6523-1.5938-11.863-0.30469-2.0859-0.58203-4.1914-0.9375-6.25h0.003906c-0.25781-1.8398-0.74609-3.6406-1.4492-5.3594l-0.14062 0.16016h-1.0508v-0.82031l0.65234-0.13672c0.023438-0.023438 0.046875-0.023438 0.070313-0.046875-0.35156-0.23438-0.23438-0.28516-0.98438-0.14062l-0.67578 0.20703v0.003906c-0.30078 0.097656-0.60547 0.17578-0.91406 0.23438-0.84766 0.19141-1.7266 0.15234-2.5508-0.11719l-0.63281-0.25391-0.32812-0.14063z"/> <path d="m424.89 557.05c1.0977 2.2188 1.7773 3.4648 1.5742 3.625s-1.2617-0.78906-2.8047-2.9023h-0.003906c-2.0352-3.0859-3.6719-6.4219-4.8672-9.9219-0.35156-1.1211-0.74609-2.293-1.1211-3.5117-0.30859-1.2617-0.67969-2.5273-0.96094-3.9102-0.28125-1.3828-0.60938-2.8789-0.74609-4.2812-0.09375-0.72266-0.16406-1.4492-0.26172-2.1953-0.058594-0.875-0.042969-1.7578 0.042969-2.6289 0.46875-3.3086 1.2305-6.5664 2.2695-9.7383 0.77344-2.3516 1.1992-4.8047 1.2656-7.2773-1.8125 0.37891-3.668 0.48828-5.5117 0.33203-4.207-0.47266-8.2461-1.918-11.801-4.2188-3.2109-2.0195-6.1875-4.3945-8.8672-7.082-4.4727-4.4414-8.3672-9.4375-11.582-14.859-2.2148-3.6172-4-7.4805-5.3125-11.512-0.88672-2.9297-0.91016-4.5898-0.67578-4.6367 0.30469-0.070313 0.84375 1.4766 2.1055 4.0742h-0.003906c1.8164 3.6797 3.9102 7.2188 6.2617 10.582 3.3984 5.0078 7.3398 9.6289 11.746 13.777 2.5469 2.4102 5.3398 4.543 8.332 6.3633 3.0742 1.9297 6.5312 3.1602 10.133 3.6055 2.0703 0.1875 4.1602-0.0625 6.1328-0.72656l2.0117-0.69922 0.53906 2.0352v-0.003906c0.47266 2.0039 0.51953 4.0859 0.13672 6.1094-0.32031 1.7656-0.75781 3.5117-1.3125 5.2188-1.0352 2.9492-1.8398 5.9766-2.4062 9.0547-0.09375 0.62891-0.09375 1.4492-0.14062 1.8945 0.070312 0.75 0.14062 1.5 0.1875 2.2227 0.070312 1.4766 0.35156 2.7539 0.51562 4.0508s0.46875 2.5508 0.67578 3.7656c0.30859 1.1914 0.58594 2.3398 0.84375 3.4414v-0.003906c0.92578 3.4141 2.1328 6.7422 3.6055 9.957z"/> <path d="m403.54 565.25c4.75 5.0117 8.8906 6.7656 8.5898 7.418v0.003907c-4.0078-0.5625-7.7109-2.457-10.508-5.3828-3.25-2.8867-6.0391-6.2578-8.2656-9.9922-2.6602-4.5195-4.8789-9.2812-6.625-14.227-2.9727-8.9062-5.2578-18.031-6.832-27.285-1.0352-3.7656-1.5117-7.6602-1.4062-11.562 0.53906-0.14062 2.1758 4.0039 4.1445 10.926 1.9688 6.8555 4.2812 16.453 7.8125 26.582v0.003907c1.6562 4.7227 3.6641 9.3164 6.0078 13.742 1.9336 3.5469 4.3164 6.832 7.082 9.7734z"/> <path d="m370.36 536.58c7 17.668 17.152 30 16.008 30.82-0.39453 0.33203-3.207-2.4805-7.2539-7.4766v-0.003906c-5.1406-6.707-9.332-14.094-12.449-21.949-2.8672-7.9883-4.4688-16.371-4.75-24.852-0.35156-3.4844 0.007812-7.0039 1.0508-10.344 0.58594 0 1.0781 3.9375 1.7539 10.234v-0.003906c1.0625 8.0312 2.9531 15.934 5.6406 23.574z"/> <path d="m352.21 381.5c2.3633 1.2852 4.7227 1.4531 4.6094 2.0859 0 0.25391-0.49219 0.51172-1.4062 0.72266-0.5625 0.16406-1.1484 0.21875-1.7305 0.16797-0.82422 0-1.6445-0.12109-2.4336-0.35547-2.0391-0.55469-3.9258-1.5703-5.5078-2.9727-1.8711-1.7344-3.3945-3.8047-4.4961-6.1055-1.0391-2.2969-1.6602-4.7617-1.8281-7.2773-0.10937-2.0703 0.17578-4.1445 0.84375-6.1094 1.1797-3.3438 3.0898-4.7227 3.418-4.4023 0.51562 0.35156-0.375 2.1523-0.69922 5.0547l-0.003906 0.003906c-0.19531 1.6992-0.17188 3.4219 0.070313 5.1172 0.33984 2.0625 0.9375 4.0742 1.7812 5.9883 0.89062 1.8594 2.043 3.582 3.4141 5.1172 1.168 1.1836 2.5039 2.1836 3.9688 2.9648z"/> <path d="m290.43 533.19c0.42187 0.375-0.98438 2.5742-3.3242 5.9023-2.3438 3.3281-5.4531 8.0312-8.6328 13.363-3.0898 5.3828-5.6172 10.391-7.3711 14.02-1.7539 3.7188-2.9492 6.082-3.4883 5.8711-0.53906-0.20703-0.25391-2.7539 0.84375-6.7852l-0.003906 0.003906c1.5977-5.2773 3.8203-10.348 6.625-15.094 2.7773-4.7461 6.0938-9.1562 9.875-13.152 2.9727-2.9766 5.1016-4.5 5.4766-4.1289z"/> </g> </g>
</svg>